<svg width="50" height="50" viewBox="0 0 50 50" fill="none" xmlns="http://www.w3.org/2000/svg">
<circle cx="25" cy="25" r="24.5" fill="#94C663" stroke="#4D4D4D"/>
<path d="M37 29C37 30.1046 36.1046 31 35 31C33.8954 31 33 30.1046 33 29C33 27.8954 35 26 35 26C35 26 37 27.8954 37 29Z" fill="#4D4D4D"/>
<rect x="13" y="15" width="5" height="10" rx="2.5" fill="#4D4D4D"/>
<rect x="32" y="15" width="5" height="10" rx="2.5" fill="#4D4D4D"/>
<path d="M13.5 39.5C15.5 40.5 17.5 34 26 34C34.5 34 35.5 40.3 37.5 39.5C39.5 38.7 39.5 36.5 37.5 34.5C35.5 32.5 31.5 29 26 29C20.5 29 15.5 32.5 13.5 34.5C11.5 36.5 11.5 38.5 13.5 39.5Z" fill="#4D4D4D"/>
</svg>
