<svg width="50" height="50" viewBox="0 0 50 50" fill="none" xmlns="http://www.w3.org/2000/svg">
<circle cx="25" cy="25" r="24.5" fill="#FFF72E" stroke="#4D4D4D"/>
<path d="M13 33C15 32 17 37 25.5 37C34 37 35 32.2 37 33C39 33.8 39 36 37 38C35 40 31 43.5 25.5 43.5C20 43.5 15 40 13 38C11 36 11 34 13 33Z" fill="#4D4D4D"/>
<path d="M16 13L17.5716 17.8369H22.6574L18.5429 20.8262L20.1145 25.6631L16 22.6738L11.8855 25.6631L13.4571 20.8262L9.3426 17.8369H14.4284L16 13Z" fill="#4D4D4D"/>
<path d="M35 13L36.5716 17.8369H41.6574L37.5429 20.8262L39.1145 25.6631L35 22.6738L30.8855 25.6631L32.4571 20.8262L28.3426 17.8369H33.4284L35 13Z" fill="#4D4D4D"/>
</svg>
